HIERARCHY
ROOT Pelvis
{
	OFFSET 0.000000 0.000000 0.000000
	CHANNELS 6 Xposition Yposition Zposition Xrotation Yrotation Zrotation
	JOINT LeftUpLeg_virtual
	{
		OFFSET 0.000000 0.000000 0.000000
		CHANNELS 3 Xrotation Yrotation Zrotation
		JOINT LeftUpLeg
		{
			OFFSET 18.735201 -5.666702 -4.541200
			CHANNELS 3 Xrotation Yrotation Zrotation
			JOINT LeftLeg
			{
				OFFSET -0.021200 -31.938179 0.493100
				CHANNELS 3 Xrotation Yrotation Zrotation
				JOINT LeftFoot
				{
					OFFSET 0.021200 -31.938179 -4.336299
					CHANNELS 3 Xrotation Yrotation Zrotation
					JOINT LeftToeBase
					{
						OFFSET 0.943001 -26.722000 15.023500
						CHANNELS 3 Xrotation Yrotation Zrotation
						End Site
						{
							OFFSET 0 0 0
						}
					}
				}
			}
		}
	}
	JOINT RightUpLeg_virtual
	{
		OFFSET 0.000000 0.000000 0.000000
		CHANNELS 3 Xrotation Yrotation Zrotation
		JOINT RightUpLeg
		{
			OFFSET -18.735201 -5.666702 -4.541200
			CHANNELS 3 Xrotation Yrotation Zrotation
			JOINT RightLeg
			{
				OFFSET 0.018946 -31.938133 0.493100
				CHANNELS 3 Xrotation Yrotation Zrotation
				JOINT RightFoot
				{
					OFFSET -0.018946 -31.938126 -4.336299
					CHANNELS 3 Xrotation Yrotation Zrotation
					JOINT RightToeBase
					{
						OFFSET -0.943001 -26.722004 15.023500
						CHANNELS 3 Xrotation Yrotation Zrotation
						End Site
						{
							OFFSET 0 0 0
						}
					}
				}
			}
		}
	}
	JOINT Hips_virtual
	{
		OFFSET 0.000000 0.000000 0.000000
		CHANNELS 3 Xrotation Yrotation Zrotation
		JOINT Hips
		{
			OFFSET -0.000000 -0.000000 -0.000000
			CHANNELS 3 Xrotation Yrotation Zrotation
			JOINT Spine
			{
				OFFSET 0.000000 10.199997 -0.299500
				CHANNELS 3 Xrotation Yrotation Zrotation
				JOINT Spine1
				{
					OFFSET 0.000000 11.900002 -1.516600
					CHANNELS 3 Xrotation Yrotation Zrotation
					JOINT Spine2
					{
						OFFSET 0.000000 13.600006 -2.842500
						CHANNELS 3 Xrotation Yrotation Zrotation
						JOINT Neck_virtual
						{
							OFFSET 0.000000 0.000000 0.000000
							CHANNELS 3 Xrotation Yrotation Zrotation
							JOINT Neck
							{
								OFFSET 0.000000 9.624100 -2.890100
								CHANNELS 3 Xrotation Yrotation Zrotation
								JOINT Head
								{
									OFFSET 0.000000 14.068802 -1.351900
									CHANNELS 3 Xrotation Yrotation Zrotation
									End Site
									{
										OFFSET 0 0 0
									}
								}
							}
						}
						JOINT LeftShoulder_virtual
						{
							OFFSET 0.000000 0.000000 0.000000
							CHANNELS 3 Xrotation Yrotation Zrotation
							JOINT LeftShoulder
							{
								OFFSET 15.263000 10.923401 -0.547700
								CHANNELS 3 Xrotation Yrotation Zrotation
								JOINT LeftArm
								{
									OFFSET 25.438599 -2.830597 -13.032500
									CHANNELS 3 Xrotation Yrotation Zrotation
									JOINT LeftForeArm
									{
										OFFSET 29.960503 0.000000 0.000000
										CHANNELS 3 Xrotation Yrotation Zrotation
										JOINT LeftHand
										{
											OFFSET 27.849251 0.000000 0.000000
											CHANNELS 3 Xrotation Yrotation Zrotation
											End Site
											{
												OFFSET 0 0 0
											}
										}
									}
								}
							}
						}
						JOINT RightShoulder_virtual
						{
							OFFSET 0.000000 0.000000 0.000000
							CHANNELS 3 Xrotation Yrotation Zrotation
							JOINT RightShoulder
							{
								OFFSET -15.263000 10.923401 -0.547700
								CHANNELS 3 Xrotation Yrotation Zrotation
								JOINT RightArm
								{
									OFFSET -25.438599 -2.830597 -13.032500
									CHANNELS 3 Xrotation Yrotation Zrotation
									JOINT RightForeArm
									{
										OFFSET -29.960503 0.000000 0.000000
										CHANNELS 3 Xrotation Yrotation Zrotation
										JOINT RightHand
										{
											OFFSET -27.849251 0.000000 0.000000
											CHANNELS 3 Xrotation Yrotation Zrotation
											End Site
											{
												OFFSET 0 0 0
											}
										}
									}
								}
							}
						}
					}
				}
			}
		}
	}
}
MOTION
Frames: 5
Frame Time: 0.03333333
-2.529498 83.444298 1.048874 0.000000 0.000000 0.000000 9.511146 -61.528345 10.139758 -41.485073 6.895422 29.340983 42.478709 -8.847777 1.133782 -6.287316 -1.078089 -21.276830 0.000000 0.000000 0.000000 9.511146 -61.528345 10.139758 -31.349701 -15.811866 -39.180164 41.613532 6.255119 -4.183999 -15.614115 -2.028783 28.891529 0.000000 0.000000 0.000000 9.511146 -61.528345 10.139758 0.000000 0.000000 0.000000 15.067191 -0.416247 -4.278141 5.872805 0.571264 -2.801488 0.000000 0.000000 0.000000 5.868636 0.648867 -2.855437 -0.719528 0.307217 0.742027 0.000000 0.000000 0.000000 5.868636 0.648867 -2.855437 1.829293 -3.192739 -12.271666 -39.386709 26.350108 -34.911996 0.430068 -46.810148 0.421476 0.000000 0.000000 0.000000 5.868636 0.648867 -2.855437 0.631519 7.257353 8.703787 7.936903 -9.680972 53.430784 -22.866905 36.192158 17.964123 0.000000 0.000000 0.000000 
-2.526510 83.542915 0.982983 0.000000 0.000000 0.000000 7.369445 -62.432977 7.672258 -40.597439 6.949572 30.522643 43.238970 -8.608755 1.152697 -6.904964 -1.420583 -21.448384 0.000000 0.000000 0.000000 7.369445 -62.432977 7.672258 -30.575762 -16.412842 -38.661299 41.192096 7.739364 -4.060900 -15.249804 -2.326787 28.140337 0.000000 0.000000 0.000000 7.369445 -62.432977 7.672258 0.000000 0.000000 0.000000 14.765143 -0.386927 -4.215185 5.731450 0.497496 -2.601732 0.000000 0.000000 0.000000 5.728707 0.572383 -2.640778 -0.624900 0.392972 0.714081 0.000000 0.000000 0.000000 5.728707 0.572383 -2.640778 1.753350 -3.032290 -12.822382 -32.213826 23.425689 -33.713520 0.377246 -47.042870 0.374131 0.000000 0.000000 0.000000 5.728707 0.572383 -2.640778 -1.447327 6.161760 8.633112 9.394085 -10.760414 54.077104 -22.572467 37.039484 17.841270 0.000000 0.000000 0.000000 
-2.566694 83.627457 0.879059 0.000000 0.000000 0.000000 4.831447 -64.216517 4.735433 -39.434521 7.643343 32.449047 44.341810 -9.192419 1.110123 -8.000983 -0.940512 -21.521658 0.000000 0.000000 0.000000 4.831447 -64.216517 4.735433 -29.763926 -16.205440 -37.623797 40.825776 8.456777 -4.002356 -14.683039 -1.794015 27.592270 0.000000 0.000000 0.000000 4.831447 -64.216517 4.735433 0.000000 -0.000001 0.000000 13.955454 -0.284883 -4.002009 5.353503 0.303617 -2.121735 0.000000 0.000000 0.000000 5.354803 0.371088 -2.125154 -0.383846 0.599829 0.655772 0.000000 0.000000 0.000000 5.354803 0.371088 -2.125154 1.574597 -2.619411 -14.233885 -23.554773 21.210104 -31.551922 0.317794 -45.950770 0.284416 0.000000 0.000000 0.000000 5.354803 0.371088 -2.125154 -6.616057 4.584717 8.134605 12.017086 -15.513272 54.328995 -22.066048 40.056573 17.908628 0.000000 0.000000 0.000000 
-2.624426 83.633301 0.797890 0.000000 0.000000 0.000000 1.919160 -66.020048 1.399421 -38.321261 8.340925 34.497906 45.641561 -9.443846 1.082540 -9.252166 -0.787988 -21.698442 0.000000 0.000000 0.000000 1.919160 -66.020048 1.399421 -28.973270 -15.763774 -36.571087 40.635121 8.458592 -3.984028 -14.201663 -0.672289 27.335867 0.000000 0.000000 0.000000 1.919160 -66.020048 1.399421 0.000000 0.000000 0.000000 12.781610 -0.129663 -3.688009 4.817280 0.032698 -1.533442 0.000000 0.000000 0.000000 4.825457 0.088645 -1.493718 -0.074342 0.853062 0.596158 0.000000 0.000000 0.000000 4.825457 0.088645 -1.493718 1.361657 -2.056929 -16.144991 -14.072012 19.876233 -29.334020 1.242834 -45.264101 0.950459 0.000000 0.000000 0.000000 4.825457 0.088645 -1.493718 -12.957630 2.831194 7.045983 14.698082 -23.426999 54.643675 -22.088822 46.016477 18.937575 0.000000 0.000000 0.000000 
-2.674098 83.505310 0.776390 0.000000 0.000000 0.000000 -0.909587 -67.006218 -1.830374 -37.612759 8.342829 36.029248 47.112384 -9.282793 1.076586 -10.353126 -1.040785 -21.946675 0.000000 0.000000 0.000000 -0.909587 -67.006218 -1.830374 -28.270191 -15.663548 -35.963661 40.784880 7.982399 -3.979546 -14.119493 0.612535 27.365759 0.000000 0.000000 0.000000 -0.909587 -67.006218 -1.830374 0.000000 0.000000 0.000000 11.386603 0.066271 -3.327130 4.197307 -0.272397 -1.008444 0.000000 0.000000 0.000000 4.213908 -0.231024 -0.930958 0.224262 1.075630 0.559411 0.000000 0.000000 0.000000 4.213908 -0.231024 -0.930958 1.169333 -1.448918 -18.194290 -5.301415 19.592022 -27.056505 -3.385312 -46.469172 -2.582865 0.000000 0.000000 0.000000 4.213908 -0.231024 -0.930958 -18.697317 1.094348 5.824793 16.315049 -34.455716 54.887926 -24.209947 55.678118 22.427471 0.000000 0.000000 0.000000 
